<svg xmlns="http://www.w3.org/2000/svg" viewBox="0 0 1314 1469"><path fill="currentColor" fill-rule="evenodd" d="M626 1461C526.7 1454.9 448.7 1434.4 366.5 1393.3C158.5 1289.3 22.5 1082.0 9.1 848.5C8.6 840.2 8.2 648.0 8.1 421.2C8.0 28.7 8.1 9.0 9.7 9.0C10.7 9.0 302.8 8.9 658.7 8.7C1211.1 8.5 1306.1 8.7 1306.5 9.9C1307.7 13.0 1306.4 845.2 1305.2 858.5C1296.4 954.2 1276.3 1027.0 1237.1 1105.0C1137.5 1303.1 939.1 1439.1 720.5 1459.0C713.9 1459.6 706.7 1460.3 704.5 1460.6C699.3 1461.2 633.2 1461.9 626.0 1461.4ZM700 1436C817.9 1428.7 934.9 1385.3 1031.2 1313.2C1171.1 1208.5 1261.8 1048.6 1278.5 877.5C1279.3 868.7 1280.3 859.7 1280.7 857.5C1281.1 855.3 1281.5 668.9 1281.7 443.2L1282 33L658 33L33 33L33 445C33.5 672.0 34.0 860.0 34.4 863.0C34.8 866.0 35.8 874.8 36.6 882.5C66.4 1151.4 270.1 1373.6 534.5 1425.4C590.2 1436.3 641.2 1439.6 700.0 1435.9ZM636 1397C519.6 1392.9 407.7 1354.7 313.0 1286.7C285.3 1266.8 266.2 1250.4 239.4 1223.6C192.5 1176.6 159.4 1130.8 129.5 1071.5C94.1 1001.3 74.0 928.0 68.0 847.0C67.4 838.3 67.0 697.1 67.0 453.2L67 73L658 73L1248 73L1248 448C1248.0 681.4 1247.6 829.1 1247.0 840.0C1237.0 1017.6 1149.2 1178.6 1004.3 1284.8C912.2 1352.3 793.0 1393.6 682.0 1396.6C671.3 1396.8 660.9 1397.2 659.0 1397.3C657.1 1397.4 646.7 1397.3 636.0 1396.9ZM641 1048L641 708L358 708L76 708L76 773C76.2 837.2 76.6 846.9 79.5 873.5C106.2 1111.2 281.7 1312.1 513.5 1370.3C554.0 1380.5 600.0 1387.2 633.8 1387.9L641 1388L641 1048ZM698 1387C835.3 1377.1 962.9 1320.2 1061.7 1224.6C1154.5 1134.8 1214.7 1017.3 1233.0 890.1C1237.8 856.2 1238.2 848.7 1238.7 776.8L1239 708L957 708L674 708L674 1048L674 1388L679 1388C681.4 1388.0 689.8 1387.5 697.5 1387.0ZM264 1181C261.4 1175.4 263.7 1155.9 269.1 1138.7C271.6 1131.0 272.1 1127.9 271.6 1124.3C270.7 1117.7 268.9 1114.5 266.1 1114.5C262.8 1114.5 260.2 1118.4 258.0 1126.6C256.9 1130.5 256.1 1132.3 256.1 1130.9C255.9 1125.6 259.9 1115.3 263.1 1112.6C268.4 1108.1 271.1 1109.4 273.4 1117.2L275 1121L275 1116C277.7 1101.4 285.2 1093.0 298.3 1090.6C302.0 1089.9 302.1 1089.8 300.5 1088.0C296.8 1083.9 297.4 1079.2 303.0 1070.0C305.8 1065.3 309.0 1060.7 310.2 1059.7C312.2 1058.1 312.2 1057.9 310.5 1054.4C306.7 1046.4 305.7 1033.7 308.1 1024.7C310.5 1015.6 395.1 814.4 398.7 809.1C405.8 798.9 417.8 792.0 428.9 792.0C433.7 792.0 440.3 793.3 441.9 794.6C442.1 794.8 441.2 797.5 440.0 800.5L438 806L440 810C441.0 812.1 442.0 814.8 442.0 816.1C442.0 818.4 394.3 948.4 391.3 954.2C389.6 957.8 385.8 960.2 381.8 960.4L379 961L368 987C362.6 1002.3 358.1 1014.7 358.2 1015.1C358.8 1016.4 402.5 983.3 402.1 981.9C401.3 978.7 402.0 974.5 403.8 972.1C404.8 970.7 433.5 949.6 467.5 925.4C530.3 880.5 533.4 878.6 538.2 881.1C539.7 881.9 540.8 881.6 543.6 879.5C548.0 876.2 549.5 876.7 552.3 882.7C555.9 890.5 555.4 902.5 551.3 911.2C547.0 920.3 541.7 925.7 522.1 940.8C513.0 947.8 495.6 961.2 483.5 970.6C471.4 979.9 447.6 998.3 430.5 1011.5C413.4 1024.6 391.6 1041.5 382.0 1048.9C358.5 1067.1 350.9 1071.0 338.8 1071.0C335.2 1071.0 334.0 1071.4 334.0 1072.5C334.0 1074.0 325.1 1089.0 322.2 1092.2C319.6 1095.2 314.3 1096.1 309.8 1094.3C300.4 1090.6 286.3 1095.9 281.5 1105.0C277.5 1112.6 275.6 1127.1 275.2 1150.8L275 1174L272 1179C268.9 1184.3 265.9 1185.4 264.2 1181.5ZM270 1179C271.3 1177.1 272.9 1154.5 273.0 1143.6C273.0 1133.4 271.8 1134.5 268.5 1147.4C266.0 1157.1 265.1 1173.0 266.6 1178.8C267.3 1181.4 269.5 1181.7 270.5 1179.2ZM317 1091C318.6 1090.9 328.5 1077.1 329.3 1073.9C329.5 1073.1 312.8 1061.7 312.4 1062.3C309.0 1066.9 302.0 1079.6 302.0 1081.2C302.0 1084.4 302.8 1085.3 308.4 1088.9C313.9 1092.3 313.6 1092.2 316.7 1091.4ZM948 1083C923.5 1076.5 907.0 1055.7 907.0 1031.1C907.0 1011.9 914.6 991.5 934.5 957.6C943.0 943.1 948.5 934.2 974.3 893.4C981.3 882.3 987.0 872.7 987.0 872.1C987.0 871.4 988.7 868.3 990.8 865.2C992.9 862.1 997.1 855.5 1000.0 850.6L1005 842L1007 848C1013.6 873.6 1060.9 984.4 1091.7 1046.3C1103.1 1069.0 1107.6 1075.7 1113.5 1078.1C1114.6 1078.5 1103.6 1078.9 1088.8 1078.9L1062 1079L1066 1076C1071.6 1069.6 1071.2 1060.5 1064.5 1044.3C1062.4 1039.5 1058.0 1028.6 1054.6 1020.3C1051.3 1011.9 1048.3 1005.0 1048.0 1005.0C1047.7 1005.0 1044.0 1011.9 1039.6 1020.2C1027.2 1044.2 1021.8 1052.4 1011.1 1063.0C992.3 1081.8 970.3 1088.8 948.1 1083.0ZM776 1077C771.9 1074.4 768.6 1067.1 769.3 1062.3C769.7 1060.2 775.8 1049.6 784.8 1035.7C822.4 977.3 859.5 919.7 872.2 900.0C884.2 881.5 886.0 878.1 885.5 875.5C884.4 869.1 883.4 868.9 855.6 869.1C841.8 869.2 823.4 869.6 814.7 869.9C796.9 870.6 796.0 871.0 796.0 877.9L796 882L794 878C792.4 875.3 787.0 865.1 781.7 854.8L772 836L777 840C786.0 845.6 784.7 845.5 877.0 846.6C908.6 846.9 934.6 847.4 934.8 847.5C935.2 847.9 929.6 856.9 909.7 888.0C885.8 925.3 823.4 1022.4 815.6 1034.5C809.0 1044.7 808.5 1045.8 808.5 1051.0C808.5 1055.1 809.1 1057.3 810.7 1059.6C815.0 1065.6 817.1 1066.0 844.5 1066.0C868.2 1066.0 869.4 1065.9 873.2 1063.8C880.7 1059.5 881.4 1057.2 881.5 1035.5C881.6 1019.7 882.0 1014.7 883.8 1006.0C886.7 992.7 896.9 962.0 898.7 961.3C900.2 960.7 911.0 967.0 912.4 969.2C913.0 970.3 911.4 973.0 906.7 979.0C883.0 1009.0 880.0 1042.9 899.1 1064.5C904.5 1070.6 910.0 1077.6 910.0 1078.4C910.0 1078.7 880.6 1079.0 844.8 1079.0C781.0 1079.0 779.4 1078.9 776.2 1077.0ZM982 1071C1003.5 1064.6 1025.0 1043.4 1038.4 1014.9C1046.1 998.4 1046.1 999.2 1040.0 983.8C1020.9 935.4 999.8 890.8 990.6 879.5C988.2 876.6 988.1 876.5 986.6 878.5C980.9 886.1 947.3 947.8 935.4 972.5C928.0 987.9 924.6 997.0 921.0 1010.6C910.4 1051.2 941.5 1082.3 981.5 1070.8ZM348 1066C355.8 1063.4 360.9 1060.1 388.2 1039.0C402.1 1028.3 431.4 1005.6 453.5 988.6C545.0 917.9 539.7 922.2 544.0 915.8C549.0 908.2 551.4 900.4 550.7 893.6C550.2 888.2 548.2 883.0 546.9 883.0C546.1 883.0 538.3 888.6 497.0 919.0C474.8 935.3 410.4 982.6 374.2 1009.3C360.8 1019.1 349.6 1027.0 349.4 1026.7C349.2 1026.5 367.1 979.4 389.1 921.9C411.1 864.5 430.9 813.0 433.0 807.5C437.3 796.2 437.2 796.0 429.4 796.0C419.6 796.0 409.9 801.3 403.0 810.4C400.0 814.4 389.2 839.1 356.9 916.6C333.8 972.1 314.2 1019.3 313.4 1021.4C309.4 1032.3 310.0 1044.5 314.8 1053.4C320.9 1064.7 333.6 1069.3 347.8 1065.6ZM330 1057C317.7 1051.2 322.6 1032.0 336.5 1032.0C346.9 1032.0 353.2 1042.6 348.2 1051.9C344.8 1058.3 336.9 1060.6 330.1 1057.3ZM342 1055C346.8 1052.0 348.7 1043.8 345.4 1039.1C339.7 1031.0 325.9 1035.1 326.0 1044.8C326.1 1053.7 334.1 1058.6 341.9 1054.6ZM458 941C516.3 899.5 535.1 886.1 536.5 884.8C537.0 884.4 536.1 884.0 534.3 884.0C531.7 884.0 519.6 892.2 471.3 926.6C438.4 950.0 410.0 970.7 408.2 972.6C405.1 975.8 403.5 980.5 406.2 978.2C406.9 977.7 430.4 960.9 458.5 940.8ZM387 955C388.3 953.1 434.3 831.6 438.4 818.4C438.8 817.2 438.6 815.0 438.0 813.4C436.4 809.2 441.2 797.1 396.5 917.5C388.9 937.9 382.5 955.1 382.3 955.8C381.5 957.8 384.5 957.2 386.7 954.8ZM641 378L641 82L358 82L76 82L76 378L76 675L358 675L641 675L641 378ZM1239 378L1239 82L956 82L674 82L674 378L674 675L956 675L1239 675L1239 378ZM825 564C808.3 559.8 799.0 541.6 804.6 524.4C806.1 520.0 811.6 514.1 862.4 463.3L918 407L913 402C890.1 377.5 883.0 349.4 892.5 319.2C893.9 314.7 895.4 311.0 895.8 311.0C896.2 311.0 908.2 322.7 922.5 337.0C949.9 364.4 951.4 365.5 955.3 361.2C959.6 356.5 958.7 355.3 929.8 326.4L903 299L905 296C905.6 294.9 906.9 293.1 907.5 292.4C908.2 291.3 915.0 297.6 936.5 319.0C965.9 348.3 967.5 349.5 971.3 345.2C972.8 343.5 973.3 341.8 973.1 339.0C973.1 338.2 960.5 325.1 945.3 309.8L918 282L921 278L925 275L953 302C968.0 317.4 981.5 330.1 982.7 330.5C985.5 331.3 990.0 327.2 990.0 323.9C990.0 322.3 981.8 313.4 962.0 293.5L934 265L937 263C938.3 261.2 940.0 260.0 940.6 260.0C941.1 260.0 953.9 272.4 969.0 287.5C997.9 316.5 999.4 317.5 1003.3 313.2C1007.2 309.0 1006.2 307.7 977.5 279.0C962.4 263.9 950.0 251.0 950.0 250.4C950.0 249.9 951.3 248.2 952.8 246.7L956 244L984 272C1013.0 301.5 1014.4 302.5 1018.3 298.2C1022.2 294.0 1021.2 292.7 992.5 264.0C977.4 248.9 965.0 236.0 965.0 235.4C965.0 234.9 966.3 233.2 967.8 231.7L971 229L999 257C1028.0 286.5 1029.4 287.5 1033.3 283.2C1037.2 279.0 1036.2 277.7 1007.3 248.8C977.8 219.3 978.3 220.0 984.3 216.8C986.0 215.9 989.5 219.0 1013.4 242.9C1037.1 266.5 1041.0 270.0 1043.6 270.0C1047.2 270.0 1050.0 267.3 1050.0 264.0C1050.0 262.2 1043.4 254.9 1023.9 235.4L998 209L1002 208C1014.5 202.1 1035.8 200.9 1050.4 204.8C1065.0 208.8 1074.9 215.0 1088.6 228.5C1108.3 248.1 1116.0 264.7 1116.0 287.7L1116 296L983 428C873.3 538.2 849.7 561.3 845.7 563.0C839.3 565.8 831.8 566.3 825.1 564.5ZM844 559C847.5 557.4 877.2 528.2 980.0 425.4C1101.5 304.0 1111.6 293.6 1111.8 290.4C1112.6 278.9 1107.7 261.2 1100.5 249.5C1094.6 240.0 1075.8 221.6 1066.7 216.5C1052.2 208.5 1032.0 205.0 1016.9 207.9C1003.7 210.5 1002.5 208.0 1029.8 235.3C1047.5 253.0 1054.0 260.3 1054.4 262.4C1055.6 269.3 1049.3 275.8 1042.4 274.7C1039.2 274.2 1039.2 274.2 1039.7 277.4C1040.8 284.4 1033.8 291.0 1026.9 289.5C1024.2 288.9 1024.1 289.0 1024.7 292.3C1025.8 299.2 1019.3 305.8 1012.6 304.6C1009.5 304.0 1009.5 304.0 1009.5 308.3C1009.5 310.7 1008.7 313.8 1007.8 315.3C1005.5 318.7 999.0 320.8 995.6 319.2C993.3 318.2 993.2 318.2 993.7 322.0C994.5 327.7 993.4 330.8 989.7 333.0C985.9 335.4 981.9 335.5 978.2 333.6C976.7 332.8 964.3 320.9 950.5 307.1C936.8 293.3 925.1 282.0 924.5 282.0C924.0 282.0 935.8 294.3 950.8 309.3C975.3 333.8 978.0 336.9 978.0 339.8C978.0 347.1 971.6 352.9 965.2 351.4C963.4 351.0 953.4 341.7 935.8 324.1C921.0 309.5 909.0 298.0 909.0 298.5C909.0 299.1 920.7 311.2 935.0 325.5C963.3 353.8 963.9 354.7 960.6 361.7C958.7 365.7 953.4 368.4 949.2 367.4C947.4 367.0 938.1 358.5 922.3 342.7C909.0 329.4 897.8 318.9 897.4 319.3C895.7 320.9 893.0 336.2 893.0 344.0C893.0 354.4 894.9 363.5 898.9 372.9C903.0 382.5 906.8 387.9 916.6 398.0L925 407L869 463C807.3 524.1 807.7 523.6 807.6 535.0C807.5 553.8 827.0 566.6 844.0 558.9ZM310 548C301.5 534.8 278.8 487.4 266.5 456.9C256.6 432.4 256.5 438.0 267.0 402.2C271.9 385.2 276.0 370.8 276.0 370.2C276.0 369.6 279.1 367.5 282.9 365.5C299.5 356.7 316.0 337.9 327.5 314.3C329.7 309.8 331.8 306.1 332.1 306.0C333.6 306.0 333.9 319.7 333.0 337.4C331.8 358.7 329.3 386.6 322.0 458.0C319.3 484.7 316.6 513.9 316.0 523.0C315.3 532.1 314.5 542.6 314.2 546.3L314 553L310 548ZM389 539C369.1 458.8 355.7 392.8 351.5 356.0C349.6 339.8 349.7 312.9 351.7 309.5C353.1 307.2 352.8 306.5 356.4 319.6C364.2 347.6 378.6 367.9 397.9 377.9C407.3 382.8 405.8 383.2 416.1 372.6L423 366L423 369C423.7 370.2 425.3 381.4 427.1 393.5C431.3 423.1 431.1 424.8 422.0 451.0C413.8 474.5 404.5 504.4 397.0 531.0C394.1 541.2 391.7 549.6 391.6 549.7C391.4 549.9 390.1 544.9 388.6 538.7ZM398 375C382.7 366.7 372.2 353.9 364.0 334.1C360.9 326.6 360.6 323.3 363.4 328.8C365.9 333.6 375.7 345.4 388.6 359.2C399.7 371.0 405.2 378.0 403.3 378.0C402.9 378.0 400.5 376.8 398.1 375.5ZM404 373C401.7 370.0 394.4 361.5 387.5 354.1C368.3 333.7 361.5 323.4 356.2 307.0C354.2 300.9 354.1 299.8 355.3 288.6L356 277L365 273C393.8 260.6 415.8 257.4 441.9 261.9C448.8 263.1 454.5 264.2 454.8 264.5C455.3 265.0 452.3 296.1 450.9 304.5C447.0 327.8 436.4 347.5 415.7 369.4L407 378L404 373ZM265 369C265.0 365.6 273.4 356.6 290.9 341.6C310.3 324.9 311.2 324.1 320.8 314.6L328 308L325 315C313.0 338.1 293.8 358.6 276.7 365.9C271.5 368.2 265.0 370.1 265.0 369.4ZM256 362C248.7 353.6 243.2 345.3 238.5 335.5C230.9 319.7 230.9 320.0 232.2 286.1L233 256L238 256C245.2 254.6 276.9 254.9 286.5 256.1C304.3 258.3 320.4 264.0 328.3 271.0L332 274L332 287L332 300L322 309C316.9 314.9 304.2 326.6 294.0 335.5C274.8 352.3 264.6 362.5 263.5 366.0C262.6 369.0 261.8 368.6 256.4 362.4ZM339 298L335 298L335 287L335 276L345 276L354 276L354 280C353.3 282.6 352.8 287.8 352.4 291.8L352 299L348 299C345.4 298.7 341.6 298.5 339.2 298.3Z"/></svg>